<!DOCTYPE svg PUBLIC "-//W3C//DTD SVG 1.1//EN" "http://www.w3.org/Graphics/SVG/1.1/DTD/svg11.dtd">
<!-- Uploaded to: SVG Repo, www.svgrepo.com, Transformed by: SVG Repo Mixer Tools -->
<svg width="800px" height="800px" viewBox="-2.4 -2.4 28.80 28.80" xmlns="http://www.w3.org/2000/svg" fill="#0d0f12">
<g id="SVGRepo_bgCarrier" stroke-width="0">
<path transform="translate(-2.4, -2.4), scale(0.8999999999999999)" d="M16,27.480241828324164C18.379439059636184,28.44419774198145,21.059673160939692,31.147874533552553,23.232828261244865,29.781002867296063C25.498174740654676,28.356144643175597,23.94230557714147,24.57274825002852,24.70222639815647,22.006713180820377C25.199753481401945,20.326706648319366,26.4690479134687,19.018841842176293,26.921301087141607,17.326086037368167C27.419139064641982,15.462709116375686,27.627781607042323,13.572528225913844,27.46913906726506,11.650329290813186C27.274531533746718,9.29235901236995,27.353631319066384,6.69528319906873,25.890469164933755,4.835968153994944C24.400785508477675,2.942950878345637,21.950232579407775,1.3645818415125976,19.55187876835742,1.5894613631220835C17.040254714421277,1.8249615687671703,15.887573740739306,5.086905966750782,13.533883600967197,5.994572458976338C11.592443620318706,6.7432606517527605,9.285733704058497,5.424756754071895,7.388807847034997,6.27997339412218C5.334098457299254,7.206325709930065,3.0565983894358597,8.7121646490391,2.607218678411245,10.92078801317122C2.1431166815319878,13.201768859660202,4.850872852834023,15.008965005120283,5.142885488865588,17.318292376013115C5.432783370032957,19.610895603194283,2.821307982741577,22.296606999302625,4.273029690741515,24.094543155373962C5.777950500176516,25.95836562244659,9.00205793390922,24.283766752977503,11.303598462802405,24.948245515089035C13.037490768895552,25.4488383131405,14.327338255572577,26.802614816378053,16,27.480241828324164" fill="#e3e6e8" strokewidth="0"/>
</g>
<g id="SVGRepo_tracerCarrier" stroke-linecap="round" stroke-linejoin="round"/>
<g id="SVGRepo_iconCarrier"> <g> <path fill="none" d="M0 0h24v24H0z"/> <path d="M4.583 17.321C3.553 16.227 3 15 3 13.011c0-3.5 2.457-6.637 6.03-8.188l.893 1.378c-3.335 1.804-3.987 4.145-4.247 5.621.537-.278 1.24-.375 1.929-.311 1.804.167 3.226 1.648 3.226 3.489a3.5 3.5 0 0 1-3.5 3.5c-1.073 0-2.099-.49-2.748-1.179zm10 0C13.553 16.227 13 15 13 13.011c0-3.5 2.457-6.637 6.03-8.188l.893 1.378c-3.335 1.804-3.987 4.145-4.247 5.621.537-.278 1.24-.375 1.929-.311 1.804.167 3.226 1.648 3.226 3.489a3.5 3.5 0 0 1-3.5 3.5c-1.073 0-2.099-.49-2.748-1.179z"/> </g> </g>
</svg>