<!DOCTYPE svg PUBLIC "-//W3C//DTD SVG 1.1//EN" "http://www.w3.org/Graphics/SVG/1.1/DTD/svg11.dtd">
<!-- Uploaded to: SVG Repo, www.svgrepo.com, Transformed by: SVG Repo Mixer Tools -->
<svg width="800px" height="800px" viewBox="-2.4 -2.4 28.80 28.80" xmlns="http://www.w3.org/2000/svg" fill="#0d0f12">
<g id="SVGRepo_bgCarrier" stroke-width="0">
<path transform="translate(-2.4, -2.4), scale(0.8999999999999999)" d="M16,29.960654771576323C18.14320097156609,30.803164672505574,20.71855918166947,31.103870052681525,22.81904392812909,30.15989062092673C24.919217018967025,29.21605125041121,26.007504370029245,26.90066155986281,27.19643728881585,24.92886078812129C28.291920926019557,23.112042154255057,29.018632849627533,21.147494782465234,29.499198594845407,19.081103988770145C29.98105505398901,17.00916323775921,30.816328529588287,14.772054387955425,30.016994079914664,12.800712570694115C29.213204403943674,10.818383145043164,26.506181351020356,10.354263276844073,25.256668516882844,8.618053188080385C23.921495268941275,6.762817131282579,24.362943956538313,3.7966967793977497,22.54236368663956,2.4146418205350795C20.769439430168077,1.0687639150909016,18.214449135826996,1.3655215230102993,16,1.5910493048528842C13.88784149332027,1.8061594264649248,12.027078257455885,2.8634160958076937,10.069378371261202,3.6849372929492006C8.024333626446383,4.543111530387526,5.757020873630024,5.018701532150885,4.16133393779697,6.55897885552784C2.5028935955858698,8.159830497487091,1.1893741786155747,10.265280311328468,0.8852444774667116,12.550155684979293C0.5856002366713495,14.80133254821668,1.5880833595861867,17.000211412712208,2.4943737173957157,19.082571066556525C3.306274301015972,20.948053804726403,4.260101168768418,22.847113441115866,5.89420154383896,24.059105342197306C7.435667571038099,25.202391500905208,9.69454983274155,24.684222677828014,11.351825868915757,25.652033038190453C13.19934098807843,26.73093856401918,14.008851508323739,29.177917949078637,16,29.960654771576323" fill="#e3e6e8" strokewidth="0"/>
</g>
<g id="SVGRepo_tracerCarrier" stroke-linecap="round" stroke-linejoin="round"/>
<g id="SVGRepo_iconCarrier"> <g> <path fill="none" d="M0 0h24v24H0z"/> <path d="M4.583 17.321C3.553 16.227 3 15 3 13.011c0-3.5 2.457-6.637 6.03-8.188l.893 1.378c-3.335 1.804-3.987 4.145-4.247 5.621.537-.278 1.24-.375 1.929-.311 1.804.167 3.226 1.648 3.226 3.489a3.5 3.5 0 0 1-3.5 3.5c-1.073 0-2.099-.49-2.748-1.179zm10 0C13.553 16.227 13 15 13 13.011c0-3.5 2.457-6.637 6.03-8.188l.893 1.378c-3.335 1.804-3.987 4.145-4.247 5.621.537-.278 1.24-.375 1.929-.311 1.804.167 3.226 1.648 3.226 3.489a3.5 3.5 0 0 1-3.5 3.5c-1.073 0-2.099-.49-2.748-1.179z"/> </g> </g>
</svg>