<!DOCTYPE svg PUBLIC "-//W3C//DTD SVG 1.1//EN" "http://www.w3.org/Graphics/SVG/1.1/DTD/svg11.dtd">
<!-- Uploaded to: SVG Repo, www.svgrepo.com, Transformed by: SVG Repo Mixer Tools -->
<svg width="800px" height="800px" viewBox="0 0 512 512" xmlns="http://www.w3.org/2000/svg" fill="#000000">
<g id="SVGRepo_bgCarrier" stroke-width="0"/>
<g id="SVGRepo_tracerCarrier" stroke-linecap="round" stroke-linejoin="round"/>
<g id="SVGRepo_iconCarrier"> <path fill="var(--ci-primary-color, #e3e6e8)" d="M400,200H388V144a128,128,0,0,0-256,0v56H120a24.028,24.028,0,0,0-24,24V472a24.028,24.028,0,0,0,24,24H400a24.028,24.028,0,0,0,24-24V224A24.028,24.028,0,0,0,400,200ZM164,144a96,96,0,0,1,192,0v56H164ZM392,464H128V232H392Z" class="ci-primary"/> <rect width="40" height="40" x="240" y="328" fill="var(--ci-primary-color, #e3e6e8)" class="ci-primary"/> </g>
</svg>