<svg id="visual" viewBox="0 0 900 600" width="900" height="600" xmlns="http://www.w3.org/2000/svg" xmlns:xlink="http://www.w3.org/1999/xlink" version="1.1"><path d="M0 540L21.5 541.3C43 542.7 86 545.3 128.8 541.2C171.7 537 214.3 526 257.2 527.3C300 528.7 343 542.3 385.8 546C428.7 549.7 471.3 543.3 514.2 539.8C557 536.3 600 535.7 642.8 538.5C685.7 541.3 728.3 547.7 771.2 548.7C814 549.7 857 545.3 878.5 543.2L900 541L900 601L878.5 601C857 601 814 601 771.2 601C728.3 601 685.7 601 642.8 601C600 601 557 601 514.2 601C471.3 601 428.7 601 385.8 601C343 601 300 601 257.2 601C214.3 601 171.7 601 128.8 601C86 601 43 601 21.5 601L0 601Z" fill="#1b1b1b"></path></svg>