<svg id="visual" viewBox="0 0 960 540" width="960" height="540" xmlns="http://www.w3.org/2000/svg" xmlns:xlink="http://www.w3.org/1999/xlink" version="1.1"><rect x="0" y="0" width="960" height="540" fill="#e3e6e8"></rect><defs><linearGradient id="grad1_0" x1="43.8%" y1="100%" x2="100%" y2="0%"><stop offset="14.444444444444446%" stop-color="#73abff" stop-opacity="1"></stop><stop offset="85.55555555555554%" stop-color="#73abff" stop-opacity="1"></stop></linearGradient></defs><defs><linearGradient id="grad1_1" x1="43.8%" y1="100%" x2="100%" y2="0%"><stop offset="14.444444444444446%" stop-color="#73abff" stop-opacity="1"></stop><stop offset="85.55555555555554%" stop-color="#a3ccf4" stop-opacity="1"></stop></linearGradient></defs><defs><linearGradient id="grad1_2" x1="43.8%" y1="100%" x2="100%" y2="0%"><stop offset="14.444444444444446%" stop-color="#e3e6e8" stop-opacity="1"></stop><stop offset="85.55555555555554%" stop-color="#a3ccf4" stop-opacity="1"></stop></linearGradient></defs><defs><linearGradient id="grad2_0" x1="0%" y1="100%" x2="56.3%" y2="0%"><stop offset="14.444444444444446%" stop-color="#73abff" stop-opacity="1"></stop><stop offset="85.55555555555554%" stop-color="#73abff" stop-opacity="1"></stop></linearGradient></defs><defs><linearGradient id="grad2_1" x1="0%" y1="100%" x2="56.3%" y2="0%"><stop offset="14.444444444444446%" stop-color="#a3ccf4" stop-opacity="1"></stop><stop offset="85.55555555555554%" stop-color="#73abff" stop-opacity="1"></stop></linearGradient></defs><defs><linearGradient id="grad2_2" x1="0%" y1="100%" x2="56.3%" y2="0%"><stop offset="14.444444444444446%" stop-color="#a3ccf4" stop-opacity="1"></stop><stop offset="85.55555555555554%" stop-color="#e3e6e8" stop-opacity="1"></stop></linearGradient></defs><g transform="translate(960, 540)"><path d="M-243 0C-233.9 -23 -224.9 -46 -218.7 -71.1C-212.6 -96.2 -209.4 -123.4 -195 -141.7C-180.6 -160 -155 -169.3 -134 -184.5C-113 -199.6 -96.7 -220.4 -75.1 -231.1C-53.5 -241.8 -26.8 -242.4 0 -243L0 0Z" fill="#c1daed"></path><path d="M-162 0C-156 -15.3 -149.9 -30.7 -145.8 -47.4C-141.7 -64.1 -139.6 -82.2 -130 -94.4C-120.4 -106.6 -103.3 -112.9 -89.3 -123C-75.4 -133 -64.4 -146.9 -50.1 -154.1C-35.7 -161.2 -17.8 -161.6 0 -162L0 0Z" fill="#88bcfa"></path><path d="M-81 0C-78 -7.7 -75 -15.3 -72.9 -23.7C-70.9 -32.1 -69.8 -41.1 -65 -47.2C-60.2 -53.3 -51.7 -56.4 -44.7 -61.5C-37.7 -66.5 -32.2 -73.5 -25 -77C-17.8 -80.6 -8.9 -80.8 0 -81L0 0Z" fill="#73abff"></path></g><g transform="translate(0, 0)"><path d="M243 0C233.3 23.6 223.6 47.1 213 69.2C202.5 91.3 191.1 111.9 176.4 128.1C161.6 144.4 143.4 156.2 127 174.7C110.6 193.3 96 218.6 75.1 231.1C54.2 243.6 27.1 243.3 0 243L0 0Z" fill="#c1daed"></path><path d="M162 0C155.5 15.7 149 31.4 142 46.1C135 60.9 127.4 74.6 117.6 85.4C107.7 96.2 95.6 104.1 84.6 116.5C73.7 128.9 64 145.7 50.1 154.1C36.2 162.4 18.1 162.2 0 162L0 0Z" fill="#88bcfa"></path><path d="M81 0C77.8 7.9 74.5 15.7 71 23.1C67.5 30.4 63.7 37.3 58.8 42.7C53.9 48.1 47.8 52.1 42.3 58.2C36.9 64.4 32 72.9 25 77C18.1 81.2 9 81.1 0 81L0 0Z" fill="#73abff"></path></g></svg>